<svg width="53" height="91" viewBox="0 0 53 91" fill="none" xmlns="http://www.w3.org/2000/svg">
<path d="M2.03553 41.9645L42.0355 1.96447C42.9732 1.02678 44.252 0.4513 45.5653 0.634554C50.6014 1.33725 51.7843 4.64792 51.6904 7.1311C51.6561 8.03668 51.1615 8.83849 50.5207 9.47928L18.0355 41.9645C16.0829 43.9171 16.0829 47.0829 18.0355 49.0355L50.0355 81.0355C50.9732 81.9732 51.5646 83.2605 51.315 84.5629C50.5716 88.4406 47.7295 89.9584 45.3814 90.3803C44.1823 90.5957 43.0246 90.0246 42.1632 89.1632L2.03553 49.0355C0.0829123 47.0829 0.082911 43.9171 2.03553 41.9645Z" fill="black" stroke="black"/>
</svg>
