<!DOCTYPE svg PUBLIC "-//W3C//DTD SVG 20010904//EN" "http://www.w3.org/TR/2001/REC-SVG-20010904/DTD/svg10.dtd">
<svg version="1.0" xmlns="http://www.w3.org/2000/svg" width="1200px" height="561px" viewBox="0 0 12000 5610" preserveAspectRatio="xMidYMid meet">
<g id="layer101" fill="#ffffff" stroke="none">
 <path d="M1944 4131 c-47 -12 -96 -45 -143 -96 -54 -59 -61 -79 -61 -186 0 -100 9 -126 67 -190 60 -66 103 -84 208 -84 80 0 95 3 136 27 69 41 113 96 139 173 20 60 21 74 11 119 -23 103 -87 184 -174 221 -45 19 -141 27 -183 16z"/>
 <path d="M2310 4076 c0 -2 13 -33 30 -68 16 -34 30 -80 30 -100 l0 -37 58 -11 c31 -6 71 -13 87 -16 62 -11 236 -76 312 -116 92 -50 187 -123 284 -220 113 -112 201 -264 266 -456 35 -104 37 -112 41 -289 3 -114 0 -206 -7 -249 -10 -56 -59 -216 -85 -275 -9 -22 31 -61 58 -57 26 4 89 162 124 313 22 94 26 133 26 270 0 174 -15 278 -61 420 -33 102 -126 293 -163 335 -8 9 -35 43 -59 74 -102 131 -292 283 -438 352 -108 51 -270 102 -378 119 -92 15 -125 18 -125 11z"/>
 <path d="M1596 3911 c-31 -17 -86 -51 -123 -77 -81 -57 -264 -238 -288 -284 -9 -18 -25 -42 -35 -52 -9 -10 -42 -69 -73 -131 -134 -268 -174 -561 -113 -850 42 -201 120 -375 240 -532 53 -68 175 -192 246 -248 45 -35 201 -127 217 -127 6 0 13 -3 15 -8 2 -4 35 -20 73 -35 222 -87 498 -116 700 -75 94 19 230 60 295 90 59 27 63 30 47 43 -34 25 -90 28 -143 7 -91 -36 -271 -67 -384 -66 -168 1 -352 46 -499 122 -154 79 -250 153 -367 284 -95 106 -174 254 -231 431 l-36 112 0 200 c0 195 1 203 31 300 66 215 156 370 292 504 90 89 191 171 210 171 6 0 9 8 6 18 -18 63 -27 140 -21 183 4 27 5 49 2 49 -3 0 -30 -13 -61 -29z"/>
 <path d="M3902 2888 c3 -623 6 -799 16 -823 19 -44 71 -94 112 -106 22 -7 236 -13 578 -16 l542 -6 0 127 0 126 -490 0 -490 0 0 240 0 240 360 0 360 0 0 125 0 125 -360 0 -360 0 0 380 0 380 -136 0 -135 0 3 -792z"/>
 <path d="M5490 3671 c-171 -9 -210 -21 -274 -86 -42 -42 -56 -65 -78 -132 -15 -45 -31 -112 -34 -150 -7 -75 8 -203 32 -275 21 -63 89 -137 163 -177 l61 -32 301 -6 301 -6 -5 -66 c-8 -96 -24 -140 -53 -151 -14 -6 -176 -10 -370 -10 l-344 0 0 -130 0 -130 303 0 c166 0 342 5 391 10 151 16 252 81 303 196 16 35 18 89 21 540 l4 501 -51 45 c-28 25 -64 48 -80 51 -51 10 -447 15 -591 8z m470 -426 l0 -185 -264 0 -264 0 -26 30 c-32 38 -40 80 -34 179 5 89 29 141 68 152 14 4 136 7 273 8 l247 1 0 -185z"/>
 <path d="M6855 3670 c-162 -7 -235 -26 -294 -76 -16 -13 -33 -24 -39 -24 -14 0 -105 -116 -131 -168 -46 -92 -55 -153 -56 -382 0 -246 8 -296 65 -416 47 -97 117 -167 216 -214 109 -52 170 -61 487 -67 l287 -6 0 132 0 131 -275 0 c-163 0 -295 4 -326 11 -60 13 -120 61 -150 121 -36 70 -52 344 -29 487 18 106 49 151 142 204 l47 27 310 0 311 0 0 125 0 125 -207 -2 c-115 -1 -275 -4 -358 -8z"/>
 <path d="M7975 3670 c-163 -5 -173 -7 -236 -37 -89 -41 -167 -120 -213 -215 -48 -100 -59 -194 -53 -462 4 -195 6 -217 30 -283 85 -238 260 -343 575 -343 263 0 415 79 515 267 l47 90 0 142 0 141 -36 50 c-60 84 -58 83 -394 91 -162 4 -334 8 -382 8 l-88 1 0 51 c0 95 18 139 82 202 l59 57 369 0 370 0 0 125 0 125 -237 -2 c-131 -1 -314 -4 -408 -8z m399 -852 c-9 -83 -24 -118 -67 -165 -53 -58 -107 -73 -256 -73 -131 0 -177 10 -220 46 -45 37 -91 137 -91 196 l0 48 320 0 321 0 -7 -52z"/>
 <path d="M8721 3218 c0 -255 4 -533 7 -619 7 -150 8 -157 35 -192 16 -21 47 -47 70 -60 41 -21 50 -22 342 -22 322 0 358 5 460 58 85 45 155 153 175 267 7 38 14 265 17 548 l6 482 -137 0 -136 0 0 -457 c0 -252 -4 -485 -10 -517 -7 -46 -17 -67 -42 -93 l-32 -33 -243 0 -243 0 0 550 0 550 -135 0 -135 0 1 -462z"/>
 <path d="M9930 3555 l0 -125 411 -2 412 -3 20 -26 c24 -33 32 -106 15 -138 -7 -14 -28 -33 -45 -44 -29 -16 -357 -103 -486 -127 -68 -14 -187 -71 -235 -115 -23 -21 -56 -67 -74 -103 -31 -62 -33 -73 -33 -172 0 -95 3 -111 29 -168 36 -77 122 -162 185 -180 70 -22 250 -32 559 -32 l292 0 0 130 0 129 -386 3 c-441 3 -414 -3 -414 95 0 85 26 126 97 151 69 25 173 52 201 52 11 0 60 12 108 26 49 14 113 30 143 35 121 19 255 109 303 203 46 89 41 246 -10 359 -30 65 -68 104 -133 138 -53 27 -248 39 -646 39 l-313 0 0 -125z"/>
 <path d="M1732 3226 c5 -319 4 -315 80 -358 24 -14 108 -49 188 -77 80 -29 181 -66 224 -82 43 -17 147 -54 230 -84 84 -29 181 -64 216 -78 36 -14 78 -28 93 -31 l28 -7 -3 278 c-4 371 9 350 -263 446 -38 14 -113 41 -165 60 -52 19 -117 42 -145 52 -27 10 -77 28 -110 40 -209 80 -339 125 -357 125 -21 0 -21 -1 -16 -284z"/>
 <path d="M1731 2426 c4 -268 5 -286 25 -312 42 -56 9 -43 814 -336 91 -33 219 -79 285 -103 66 -23 165 -59 220 -80 238 -87 305 -109 312 -101 10 10 10 500 0 547 -15 73 -57 99 -292 181 -77 27 -162 57 -190 68 -113 43 -295 110 -370 135 -44 15 -111 40 -150 55 -38 15 -146 55 -240 89 -93 33 -219 78 -279 101 -61 22 -116 40 -124 40 -12 0 -14 -44 -11 -284z"/>
 </g>

</svg>